<svg width="24.000000" height="23.400391" viewBox="0 0 24 23.4004" fill="none" xmlns="http://www.w3.org/2000/svg" xmlns:xlink="http://www.w3.org/1999/xlink">
	<desc>
			Created with Pixso.
	</desc>
	<defs/>
	<path id="Vector" d="M8.02734 18.8419C8.02734 18.9387 7.91602 19.0161 7.77588 19.0161C7.61621 19.0306 7.50488 18.9532 7.50488 18.8419C7.50488 18.7451 7.61621 18.6677 7.75635 18.6677C7.90186 18.6532 8.02734 18.7306 8.02734 18.8419ZM6.52246 18.6241C6.48877 18.7209 6.58545 18.8323 6.73047 18.8613C6.85645 18.9097 7.00146 18.8613 7.03076 18.7645C7.05957 18.6677 6.96777 18.5564 6.82275 18.5129C6.69678 18.479 6.55664 18.5275 6.52246 18.6241ZM8.66113 18.542C8.521 18.5758 8.42432 18.6677 8.43848 18.7791C8.45312 18.8759 8.5791 18.9387 8.72412 18.9048C8.86475 18.871 8.96143 18.7791 8.94678 18.6823C8.93213 18.5903 8.80176 18.5275 8.66113 18.542ZM11.8452 0C5.13379 0 0 5.09521 0 11.8064C0 17.1726 3.37744 21.7645 8.20166 23.3806C8.8208 23.4919 9.03857 23.1096 9.03857 22.7952C9.03857 22.4951 9.02441 20.8403 9.02441 19.8242C9.02441 19.8242 5.63721 20.55 4.92578 18.3822C4.92578 18.3822 4.37402 16.9742 3.58057 16.6113C3.58057 16.6113 2.47266 15.8516 3.6582 15.8661C3.6582 15.8661 4.86279 15.9629 5.52588 17.1145C6.58545 18.9823 8.36133 18.4452 9.05322 18.1259C9.16455 17.3516 9.479 16.8146 9.82764 16.4951C7.12256 16.1952 4.39355 15.8032 4.39355 11.1484C4.39355 9.81775 4.76123 9.15002 5.53564 8.29834C5.40967 7.98389 4.99854 6.68713 5.66113 5.01294C6.67236 4.69836 9 6.31934 9 6.31934C9.96777 6.04834 11.0083 5.90808 12.0386 5.90808C13.0693 5.90808 14.1099 6.04834 15.0776 6.31934C15.0776 6.31934 17.4048 4.6936 18.416 5.01294C19.0791 6.69189 18.668 7.98389 18.542 8.29834C19.3159 9.15479 19.7905 9.82263 19.7905 11.1484C19.7905 15.8177 16.9404 16.1903 14.2354 16.4951C14.6807 16.8774 15.0581 17.6033 15.0581 18.7404C15.0581 20.371 15.0435 22.3887 15.0435 22.7855C15.0435 23.1 15.2661 23.4823 15.8809 23.371C20.7192 21.7645 24 17.1726 24 11.8064C24 5.09521 18.5566 0 11.8452 0ZM4.70312 16.6887C4.64014 16.7371 4.65479 16.8484 4.7373 16.9403C4.81445 17.0177 4.92578 17.0516 4.98877 16.9888C5.05176 16.9403 5.03711 16.829 4.95508 16.7371C4.87744 16.6597 4.76611 16.6259 4.70312 16.6887ZM4.18066 16.2968C4.14697 16.3596 4.19531 16.4371 4.29199 16.4855C4.36914 16.5338 4.46631 16.5194 4.5 16.4517C4.53369 16.3887 4.48535 16.3113 4.38867 16.2629C4.29199 16.2339 4.21436 16.2484 4.18066 16.2968ZM5.74854 18.0194C5.6709 18.0823 5.7002 18.2274 5.81152 18.3193C5.92236 18.4307 6.06299 18.4452 6.12598 18.3678C6.18848 18.3048 6.15967 18.1597 6.06299 18.0677C5.95654 17.9564 5.81152 17.9419 5.74854 18.0194ZM5.19678 17.3081C5.11914 17.3564 5.11914 17.4823 5.19678 17.5935C5.27441 17.7048 5.40479 17.7532 5.46777 17.7048C5.54492 17.642 5.54492 17.5161 5.46777 17.4048C5.3999 17.2936 5.27441 17.2451 5.19678 17.3081Z" fill="#000000" fill-opacity="1.000000" fill-rule="nonzero"/>
</svg>
